<?xml version="1.0" encoding="UTF-8"?>
<svg width="165px" height="74px" viewBox="0 0 165 74" version="1.1" xmlns="http://www.w3.org/2000/svg" xmlns:xlink="http://www.w3.org/1999/xlink">
    <!-- Generator: Sketch 59.1 (86144) - https://sketch.com -->
    <title>Path</title>
    <desc>Created with Sketch.</desc>
    <defs>
        <filter x="-8.7%" y="-21.1%" width="117.4%" height="142.2%" filterUnits="objectBoundingBox" id="filter-1">
            <feOffset dx="0" dy="2" in="SourceAlpha" result="shadowOffsetOuter1"></feOffset>
            <feGaussianBlur stdDeviation="2.5" in="shadowOffsetOuter1" result="shadowBlurOuter1"></feGaussianBlur>
            <feColorMatrix values="0 0 0 0 0   0 0 0 0 0   0 0 0 0 0  0 0 0 0.5 0" type="matrix" in="shadowBlurOuter1" result="shadowMatrixOuter1"></feColorMatrix>
            <feMerge>
                <feMergeNode in="shadowMatrixOuter1"></feMergeNode>
                <feMergeNode in="SourceGraphic"></feMergeNode>
            </feMerge>
        </filter>
    </defs>
    <g id="Page-1" stroke="none" stroke-width="1" fill="none" fill-rule="evenodd">
        <g id="3" transform="translate(-104.000000, -439.000000)" fill="#78D600">
            <g id="Group-3" filter="url(#filter-1)" transform="translate(109.000000, 442.000000)">
                <g id="Group-6">
                    <path d="M27.5290987,0 C26.7204265,0 26.1804336,0.840887493 26.5175999,1.58129158 L27.0207152,2.6892534 C27.5396351,4.16477296 28.055921,5.62707102 28.577475,7.09730199 C28.6301572,7.30091311 28.6538642,7.50452423 28.6538642,7.70284675 C28.6538642,8.9985539 27.608122,10.1223815 26.2383841,10.1223815 L3.11351972,10.1223815 C1.39607906,10.1223815 -2.13162821e-14,11.5053506 -2.13162821e-14,13.2479445 C-2.13162821e-14,14.9905384 1.39607906,16.3973061 3.11351972,16.3973061 L29.2281005,16.3973061 C31.4828999,16.3973061 33.5322386,17.6983019 34.4963234,19.7555675 C34.6411996,20.0517291 34.7044182,20.3637566 34.7044182,20.6546296 C34.7044182,21.794323 33.7824792,22.8176672 32.5523492,22.8176672 L21.4811788,22.8176672 C19.7558358,22.8176672 18.2464899,24.1689047 18.2280512,25.9009214 C18.2043442,27.667314 19.6162279,29.0952361 21.3415709,29.0952361 L33.1371219,29.0952361 C36.6273196,29.0952361 39.8066921,31.1313474 41.2923309,34.2992191 L52.8745189,59.0657357 C54.270598,62.0670165 57.2840215,64 60.5871972,64 L90.5712878,64 C90.5791901,64 90.5897265,63.9894228 90.5897265,63.9814899 L90.5897265,59.0657357 L90.600263,63.9814899 C90.600263,63.9894228 90.6107994,64 90.6187018,64 L120.602792,64 C123.905968,64 126.916757,62.0670165 128.315471,59.0657357 L138.446263,37.3956947 L153.808401,3.70202041 L153.818938,3.68086601 C154.000691,3.15993885 154.185079,2.64165599 154.366833,2.12072884 L154.598635,1.52840557 C154.893655,0.798578689 154.353662,0 153.568697,0 L27.5290987,0 Z" id="Path"></path>
                </g>
            </g>
        </g>
    </g>
</svg>